<svg width="16" height="16" viewBox="0 0 16 16" fill="none" xmlns="http://www.w3.org/2000/svg">
<path d="M1.29208 1.29202C1.38497 1.19889 1.49532 1.125 1.61681 1.07459C1.7383 1.02418 1.86854 0.99823 2.00008 0.99823C2.13161 0.99823 2.26186 1.02418 2.38335 1.07459C2.50484 1.125 2.61519 1.19889 2.70808 1.29202L8.00008 6.58602L13.2921 1.29202C13.3851 1.19904 13.4954 1.12529 13.6169 1.07497C13.7384 1.02465 13.8686 0.998754 14.0001 0.998754C14.1316 0.998754 14.2618 1.02465 14.3832 1.07497C14.5047 1.12529 14.6151 1.19904 14.7081 1.29202C14.8011 1.38499 14.8748 1.49537 14.9251 1.61685C14.9754 1.73833 15.0013 1.86853 15.0013 2.00002C15.0013 2.13151 14.9754 2.26171 14.9251 2.38318C14.8748 2.50466 14.8011 2.61504 14.7081 2.70802L9.41408 8.00002L14.7081 13.292C14.8011 13.385 14.8748 13.4954 14.9251 13.6169C14.9754 13.7383 15.0013 13.8685 15.0013 14C15.0013 14.1315 14.9754 14.2617 14.9251 14.3832C14.8748 14.5047 14.8011 14.615 14.7081 14.708C14.6151 14.801 14.5047 14.8747 14.3832 14.9251C14.2618 14.9754 14.1316 15.0013 14.0001 15.0013C13.8686 15.0013 13.7384 14.9754 13.6169 14.9251C13.4954 14.8747 13.3851 14.801 13.2921 14.708L8.00008 9.41402L2.70808 14.708C2.6151 14.801 2.50472 14.8747 2.38325 14.9251C2.26177 14.9754 2.13157 15.0013 2.00008 15.0013C1.86859 15.0013 1.73839 14.9754 1.61691 14.9251C1.49543 14.8747 1.38505 14.801 1.29208 14.708C1.1991 14.615 1.12535 14.5047 1.07503 14.3832C1.02471 14.2617 0.998815 14.1315 0.998815 14C0.998815 13.8685 1.02471 13.7383 1.07503 13.6169C1.12535 13.4954 1.1991 13.385 1.29208 13.292L6.58608 8.00002L1.29208 2.70802C1.19895 2.61513 1.12507 2.50478 1.07465 2.38328C1.02424 2.26179 0.998291 2.13155 0.998291 2.00002C0.998291 1.86848 1.02424 1.73824 1.07465 1.61675C1.12507 1.49526 1.19895 1.38491 1.29208 1.29202Z" fill="white"/>
</svg>
