<svg width="150" height="36" viewBox="0 0 150 36" fill="none" xmlns="http://www.w3.org/2000/svg">
<path fill-rule="evenodd" clip-rule="evenodd" d="M44.6341 18.0688C44.6353 17.9894 44.6359 17.9099 44.6359 17.8302C44.6359 9.57653 38.0945 2.8856 30.0252 2.8856C21.956 2.8856 15.4146 9.57653 15.4146 17.8302C15.4146 26.0839 21.956 32.7748 30.0252 32.7748C33.4145 32.7748 36.5342 31.5944 39.0129 29.6136C38.0412 28.3947 37.4585 26.8385 37.4585 25.1431C37.4585 21.2335 40.5571 18.0641 44.3794 18.0641C44.4646 18.0641 44.5496 18.0657 44.6341 18.0688ZM47.18 18.6677C47.1927 18.3902 47.1992 18.111 47.1992 17.8302C47.1992 8.12852 39.5101 0.263733 30.0252 0.263733C24.9843 0.263733 20.4506 2.48522 17.3089 6.0233C15.9535 5.49773 14.4837 5.21002 12.9482 5.21002C6.15309 5.21002 0.644531 10.8445 0.644531 17.795C0.644531 24.7454 6.15309 30.3799 12.9482 30.3799C14.4662 30.3799 15.9199 30.0987 17.2624 29.5846C20.4058 33.1532 24.9594 35.3967 30.0252 35.3967C34.2051 35.3967 38.0362 33.8693 41.0142 31.3305C42.0103 31.8985 43.1579 32.2222 44.3794 32.2222C48.2017 32.2222 51.3002 29.0528 51.3002 25.1431C51.3002 22.2531 49.6071 19.7675 47.18 18.6677ZM44.3694 20.686C41.9674 20.6915 40.0218 22.6849 40.0218 25.1431C40.0218 26.1469 40.3462 27.0732 40.8936 27.8183C42.6285 25.8446 43.8568 23.3958 44.3694 20.686ZM42.9783 29.3649C44.8664 27.1485 46.2196 24.443 46.8324 21.4587C47.9821 22.2612 48.7369 23.612 48.7369 25.1431C48.7369 27.6048 46.786 29.6003 44.3794 29.6003C43.8893 29.6003 43.418 29.5175 42.9783 29.3649ZM15.6473 8.21935C15.7341 8.08369 15.8228 7.94934 15.9132 7.81633C13.9828 10.6571 12.8513 14.1085 12.8513 17.8302C12.8513 21.3523 13.8647 24.6322 15.6094 27.3817C14.7636 27.6268 13.8709 27.7581 12.9482 27.7581C7.56875 27.7581 3.2078 23.2974 3.2078 17.795C3.2078 12.2925 7.56875 7.83189 12.9482 7.83189C13.8847 7.83189 14.7902 7.96705 15.6473 8.21935Z" fill="white"/>
<path d="M63.7786 23.4C63.0217 23.4 62.3444 23.2268 61.7468 22.8804C61.1492 22.534 60.6811 22.0552 60.3424 21.4439C60.0038 20.8225 59.8345 20.1246 59.8345 19.3504C59.8345 18.5659 60.0038 17.8681 60.3424 17.2568C60.6811 16.6354 61.1492 16.1565 61.7468 15.8203C62.3444 15.474 63.0217 15.3008 63.7786 15.3008C64.4061 15.3008 64.9738 15.4281 65.4818 15.6828C65.9997 15.9273 66.418 16.289 66.7368 16.7678L66.184 17.1804C65.9051 16.7831 65.5565 16.4876 65.1382 16.2941C64.7298 16.0903 64.2766 15.9884 63.7786 15.9884C63.1711 15.9884 62.6233 16.1311 62.1352 16.4163C61.6572 16.6914 61.2787 17.0836 60.9998 17.593C60.7309 18.1024 60.5964 18.6882 60.5964 19.3504C60.5964 20.0126 60.7309 20.5984 60.9998 21.1077C61.2787 21.6171 61.6572 22.0144 62.1352 22.2997C62.6233 22.5748 63.1711 22.7123 63.7786 22.7123C64.2766 22.7123 64.7298 22.6155 65.1382 22.422C65.5565 22.2182 65.9051 21.9177 66.184 21.5203L66.7368 21.9329C66.418 22.4118 65.9997 22.7785 65.4818 23.0332C64.9738 23.2777 64.4061 23.4 63.7786 23.4Z" fill="white"/>
<path d="M68.2442 12H68.9912V23.3388H68.2442V12Z" fill="white"/>
<path d="M74.5898 23.4C73.8528 23.4 73.1855 23.2268 72.5879 22.8804C72.0002 22.534 71.5371 22.0552 71.1985 21.4439C70.8598 20.8225 70.6905 20.1246 70.6905 19.3504C70.6905 18.5761 70.8598 17.8833 71.1985 17.2721C71.5371 16.6506 72.0002 16.1667 72.5879 15.8203C73.1855 15.474 73.8528 15.3008 74.5898 15.3008C75.3269 15.3008 75.9892 15.474 76.5769 15.8203C77.1745 16.1667 77.6426 16.6506 77.9812 17.2721C78.3199 17.8833 78.4892 18.5761 78.4892 19.3504C78.4892 20.1246 78.3199 20.8225 77.9812 21.4439C77.6426 22.0552 77.1745 22.534 76.5769 22.8804C75.9892 23.2268 75.3269 23.4 74.5898 23.4ZM74.5898 22.7123C75.1875 22.7123 75.7203 22.5697 76.1884 22.2844C76.6665 21.9992 77.04 21.6018 77.3089 21.0925C77.5878 20.5831 77.7273 20.0024 77.7273 19.3504C77.7273 18.6984 77.5878 18.1177 77.3089 17.6083C77.04 17.0989 76.6665 16.7016 76.1884 16.4163C75.7203 16.1311 75.1875 15.9884 74.5898 15.9884C73.9922 15.9884 73.4544 16.1311 72.9763 16.4163C72.5082 16.7016 72.1347 17.0989 71.8558 17.6083C71.5869 18.1177 71.4524 18.6984 71.4524 19.3504C71.4524 20.0024 71.5869 20.5831 71.8558 21.0925C72.1347 21.6018 72.5082 21.9992 72.9763 22.2844C73.4544 22.5697 73.9922 22.7123 74.5898 22.7123Z" fill="white"/>
<path d="M87.0366 15.3619V23.3388H86.3195V21.6273C86.0606 22.1876 85.6771 22.6257 85.1691 22.9415C84.6612 23.2472 84.0636 23.4 83.3763 23.4C82.3604 23.4 81.5636 23.1096 80.9859 22.5289C80.4083 21.9482 80.1194 21.1128 80.1194 20.0228V15.3619H80.8664V19.9616C80.8664 20.8581 81.0905 21.5407 81.5387 22.0094C81.9869 22.478 82.6194 22.7123 83.4361 22.7123C84.3126 22.7123 85.0048 22.4321 85.5128 21.8718C86.0307 21.3115 86.2896 20.5576 86.2896 19.6102V15.3619H87.0366Z" fill="white"/>
<path d="M96.5377 12V23.3388H95.8056V21.4592C95.4969 22.0807 95.0636 22.5595 94.5058 22.8957C93.9481 23.2319 93.3156 23.4 92.6085 23.4C91.8814 23.4 91.224 23.2268 90.6364 22.8804C90.0487 22.534 89.5856 22.0552 89.2469 21.4439C88.9183 20.8327 88.7539 20.1348 88.7539 19.3504C88.7539 18.5659 88.9183 17.8681 89.2469 17.2568C89.5856 16.6354 90.0487 16.1565 90.6364 15.8203C91.224 15.474 91.8814 15.3008 92.6085 15.3008C93.3057 15.3008 93.9282 15.4689 94.476 15.8051C95.0337 16.1413 95.472 16.6099 95.7907 17.211V12H96.5377ZM92.6533 22.7123C93.2509 22.7123 93.7837 22.5697 94.2519 22.2844C94.7299 21.9992 95.1034 21.6018 95.3724 21.0925C95.6512 20.5831 95.7907 20.0024 95.7907 19.3504C95.7907 18.6984 95.6512 18.1177 95.3724 17.6083C95.1034 17.0989 94.7299 16.7016 94.2519 16.4163C93.7837 16.1311 93.2509 15.9884 92.6533 15.9884C92.0557 15.9884 91.5178 16.1311 91.0398 16.4163C90.5716 16.7016 90.1981 17.0989 89.9192 17.6083C89.6503 18.1177 89.5159 18.6984 89.5159 19.3504C89.5159 20.0024 89.6503 20.5831 89.9192 21.0925C90.1981 21.6018 90.5716 21.9992 91.0398 22.2844C91.5178 22.5697 92.0557 22.7123 92.6533 22.7123Z" fill="white"/>
<path d="M102.899 15.3008C103.875 15.3008 104.647 15.5911 105.215 16.1718C105.783 16.7525 106.066 17.5879 106.066 18.678V23.3388H105.319V18.7391C105.319 17.8426 105.095 17.16 104.647 16.6914C104.209 16.2228 103.591 15.9884 102.795 15.9884C101.878 15.9884 101.156 16.2686 100.628 16.8289C100.1 17.3892 99.8365 18.1431 99.8365 19.0906V23.3388H99.0895V15.3619H99.8066V17.0887C100.076 16.5284 100.474 16.0903 101.002 15.7745C101.54 15.4587 102.172 15.3008 102.899 15.3008Z" fill="white"/>
<path d="M115.372 15.3619V23.3388H114.655V21.6273C114.396 22.1876 114.012 22.6257 113.504 22.9415C112.996 23.2472 112.399 23.4 111.712 23.4C110.696 23.4 109.899 23.1096 109.321 22.5289C108.744 21.9482 108.455 21.1128 108.455 20.0228V15.3619H109.202V19.9616C109.202 20.8581 109.426 21.5407 109.874 22.0094C110.322 22.478 110.955 22.7123 111.771 22.7123C112.648 22.7123 113.34 22.4321 113.848 21.8718C114.366 21.3115 114.625 20.5576 114.625 19.6102V15.3619H115.372Z" fill="white"/>
<path d="M124.873 12V23.3388H124.141V21.4592C123.832 22.0807 123.399 22.5595 122.841 22.8957C122.283 23.2319 121.651 23.4 120.944 23.4C120.217 23.4 119.559 23.2268 118.972 22.8804C118.384 22.534 117.921 22.0552 117.582 21.4439C117.254 20.8327 117.089 20.1348 117.089 19.3504C117.089 18.5659 117.254 17.8681 117.582 17.2568C117.921 16.6354 118.384 16.1565 118.972 15.8203C119.559 15.474 120.217 15.3008 120.944 15.3008C121.641 15.3008 122.263 15.4689 122.811 15.8051C123.369 16.1413 123.807 16.6099 124.126 17.211V12H124.873ZM120.989 22.7123C121.586 22.7123 122.119 22.5697 122.587 22.2844C123.065 21.9992 123.439 21.6018 123.708 21.0925C123.987 20.5831 124.126 20.0024 124.126 19.3504C124.126 18.6984 123.987 18.1177 123.708 17.6083C123.439 17.0989 123.065 16.7016 122.587 16.4163C122.119 16.1311 121.586 15.9884 120.989 15.9884C120.391 15.9884 119.853 16.1311 119.375 16.4163C118.907 16.7016 118.533 17.0989 118.255 17.6083C117.986 18.1177 117.851 18.6984 117.851 19.3504C117.851 20.0024 117.986 20.5831 118.255 21.0925C118.533 21.6018 118.907 21.9992 119.375 22.2844C119.853 22.5697 120.391 22.7123 120.989 22.7123Z" fill="white"/>
<path d="M134.252 15.3619V23.3388H133.535V21.6273C133.276 22.1876 132.893 22.6257 132.385 22.9415C131.877 23.2472 131.279 23.4 130.592 23.4C129.576 23.4 128.779 23.1096 128.202 22.5289C127.624 21.9482 127.335 21.1128 127.335 20.0228V15.3619H128.082V19.9616C128.082 20.8581 128.306 21.5407 128.754 22.0094C129.203 22.478 129.835 22.7123 130.652 22.7123C131.528 22.7123 132.221 22.4321 132.728 21.8718C133.246 21.3115 133.505 20.5576 133.505 19.6102V15.3619H134.252Z" fill="white"/>
<path d="M146.532 15.3008C147.498 15.3008 148.255 15.5911 148.803 16.1718C149.361 16.7525 149.64 17.5879 149.64 18.678V23.3388H148.893V18.7391C148.893 17.8426 148.679 17.16 148.25 16.6914C147.822 16.2228 147.224 15.9884 146.458 15.9884C145.581 15.9884 144.884 16.2686 144.366 16.8289C143.858 17.3892 143.604 18.1431 143.604 19.0906V23.3388H142.857V18.7391C142.857 17.8426 142.643 17.16 142.215 16.6914C141.786 16.2228 141.189 15.9884 140.422 15.9884C139.545 15.9884 138.848 16.2686 138.33 16.8289C137.822 17.3892 137.568 18.1431 137.568 19.0906V23.3388H136.821V15.3619H137.538V17.0734C137.797 16.5131 138.181 16.0801 138.689 15.7745C139.207 15.4587 139.819 15.3008 140.526 15.3008C141.234 15.3008 141.831 15.4638 142.319 15.7898C142.817 16.1158 143.171 16.5946 143.38 17.2262C143.639 16.6354 144.042 16.1667 144.59 15.8203C145.148 15.474 145.795 15.3008 146.532 15.3008Z" fill="white"/>
</svg>
