<svg width="18" height="19" viewBox="0 0 18 19" fill="none" xmlns="http://www.w3.org/2000/svg">
<path d="M17.9973 10.3277C17.9973 9.5 17.9622 8.75631 17.8919 8.09659C17.763 6.94508 17.4438 5.86853 16.9342 4.86695C16.4246 3.86537 15.7832 3.00773 15.01 2.29403C14.2368 1.58033 13.3347 1.01957 12.3038 0.611742C11.2728 0.203914 10.1892 0 9.05284 0C7.4713 0 6.01277 0.383838 4.67725 1.15152C3.34173 1.91919 2.26394 2.97775 1.44389 4.32718C0.623829 5.67661 0.172798 7.17298 0.0907929 8.81629C0.0673627 9.40404 0.04979 9.85385 0.038075 10.1657V10.4356C0.038075 10.4716 0.0351462 10.5076 0.0292886 10.5436L0.011716 10.6515L0.00292969 10.7595V14.6278C0.00292969 15.0477 0.149368 15.4075 0.442246 15.7074C0.735123 16.0073 1.08658 16.1572 1.4966 16.1572H3.00785C3.42959 16.1572 3.78397 16.0073 4.07099 15.7074C4.35801 15.4075 4.50152 15.0477 4.50152 14.6278V10.7595C4.50152 10.4836 4.43709 10.2287 4.30823 9.99479C4.17936 9.76089 4.0007 9.57497 3.77226 9.43703C3.54382 9.29908 3.28901 9.23011 3.00785 9.23011H1.4966C1.39117 9.23011 1.29159 9.24211 1.19787 9.2661V9.13115L1.20666 9.0232L1.21544 8.93324V8.88826C1.28573 7.43687 1.67819 6.12042 2.39281 4.93892C3.10743 3.75742 4.05049 2.83081 5.222 2.15909C6.39351 1.48737 7.67046 1.15152 9.05284 1.15152C11.0678 1.15152 12.8017 1.82023 14.2543 3.15767C15.707 4.49511 16.5446 6.1834 16.7672 8.22254C16.7789 8.3065 16.7907 8.44444 16.8024 8.63636C16.8141 8.82828 16.8258 9.03819 16.8375 9.2661C16.7204 9.24211 16.6091 9.23011 16.5036 9.23011H15.01C14.5882 9.23011 14.2338 9.38005 13.9468 9.67992C13.6598 9.9798 13.5163 10.3396 13.5163 10.7595V14.6098C13.5163 14.8857 13.5866 15.1436 13.7272 15.3835C13.8677 15.6234 14.061 15.8093 14.3071 15.9413L10.6871 17.3987V17.3087C10.6871 17.2008 10.6637 17.1018 10.6168 17.0118C10.5699 16.9219 10.5026 16.8529 10.4147 16.8049C10.3269 16.7569 10.2302 16.733 10.1248 16.733H8.43779C8.2855 16.733 8.1537 16.7869 8.04241 16.8949C7.93112 17.0028 7.87547 17.1408 7.87547 17.3087V17.8845C7.87547 18.0404 7.93112 18.1753 8.04241 18.2893C8.1537 18.4032 8.2855 18.4602 8.43779 18.4602H10.1423L11.144 18.4422L16.9429 16.1212L17.0132 16.0852L17.0747 16.0402L17.1362 15.9773C17.394 15.8573 17.6019 15.6744 17.7601 15.4285C17.9182 15.1826 17.9973 14.9097 17.9973 14.6098V10.7595C17.9973 10.6755 17.9856 10.5855 17.9622 10.4896C17.9856 10.4296 17.9973 10.3756 17.9973 10.3277ZM1.4966 10.3816H3.00785C3.06643 10.3816 3.11621 10.3906 3.15722 10.4086C3.19822 10.4266 3.23629 10.4536 3.27144 10.4896C3.30658 10.5256 3.33294 10.5675 3.35052 10.6155C3.36809 10.6635 3.37688 10.7115 3.37688 10.7595V14.6278C3.37688 14.7238 3.34173 14.8108 3.27144 14.8887C3.20115 14.9667 3.11329 15.0057 3.00785 15.0057H1.4966C1.39117 15.0057 1.3033 14.9667 1.23301 14.8887C1.16272 14.8108 1.12758 14.7238 1.12758 14.6278V10.7595C1.12758 10.7115 1.13636 10.6635 1.15394 10.6155C1.17151 10.5675 1.19787 10.5256 1.23301 10.4896C1.26816 10.4536 1.30916 10.4266 1.35602 10.4086C1.40288 10.3906 1.44974 10.3816 1.4966 10.3816ZM14.6409 10.7595C14.6409 10.7235 14.6468 10.6845 14.6585 10.6425C14.6702 10.6005 14.6878 10.5646 14.7112 10.5346C14.7347 10.5046 14.761 10.4776 14.7903 10.4536C14.8196 10.4296 14.8518 10.4116 14.887 10.3996C14.9221 10.3876 14.9631 10.3816 15.01 10.3816H16.5036C16.5739 10.3816 16.6354 10.3996 16.6881 10.4356C16.7409 10.4716 16.7848 10.5166 16.8199 10.5705C16.8551 10.6245 16.8727 10.6875 16.8727 10.7595V14.6098C16.8727 14.6698 16.8551 14.7298 16.8199 14.7898C16.7848 14.8497 16.7409 14.8977 16.6881 14.9337C16.6354 14.9697 16.5739 14.9877 16.5036 14.9877H15.01C14.9045 14.9877 14.8167 14.9487 14.7464 14.8707C14.6761 14.7928 14.6409 14.7058 14.6409 14.6098V10.7595Z" fill="#575DFF"/>
</svg>
