<svg width="179" height="42" viewBox="0 0 179 42" fill="none" xmlns="http://www.w3.org/2000/svg">
<path fill-rule="evenodd" clip-rule="evenodd" d="M53.2632 21.0803C53.2647 20.9877 53.2654 20.8949 53.2654 20.802C53.2654 11.1727 45.4593 3.36658 35.83 3.36658C26.2007 3.36658 18.3946 11.1727 18.3946 20.802C18.3946 30.4313 26.2007 38.2374 35.83 38.2374C39.8745 38.2374 43.5974 36.8602 46.5553 34.5493C45.3958 33.1272 44.7004 31.3117 44.7004 29.3337C44.7004 24.7725 48.3981 21.0749 52.9593 21.0749C53.0611 21.0749 53.1624 21.0767 53.2632 21.0803ZM56.3014 21.779C56.3166 21.4552 56.3242 21.1295 56.3242 20.802C56.3242 9.48332 47.1487 0.307739 35.83 0.307739C29.8145 0.307739 24.4043 2.89947 20.6552 7.02723C19.0377 6.41406 17.2838 6.07841 15.4515 6.07841C7.34259 6.07841 0.769043 12.652 0.769043 20.7609C0.769043 28.8697 7.34259 35.4433 15.4515 35.4433C17.2629 35.4433 18.9977 35.1153 20.5997 34.5154C24.3508 38.6788 29.7848 41.2962 35.83 41.2962C40.818 41.2962 45.3898 39.5143 48.9435 36.5522C50.1323 37.215 51.5017 37.5926 52.9593 37.5926C57.5205 37.5926 61.2182 33.895 61.2182 29.3337C61.2182 25.962 59.1977 23.0622 56.3014 21.779ZM52.9474 24.1337C50.081 24.1401 47.7593 26.4658 47.7593 29.3337C47.7593 30.5048 48.1464 31.5855 48.7996 32.4547C50.8699 30.1521 52.3357 27.2952 52.9474 24.1337ZM51.2874 34.2591C53.5405 31.6733 55.1553 28.5169 55.8865 25.0353C57.2586 25.9714 58.1593 27.5474 58.1593 29.3337C58.1593 32.2056 55.8312 34.5338 52.9593 34.5338C52.3744 34.5338 51.8121 34.4372 51.2874 34.2591ZM18.6723 9.58929L18.6769 9.58238C16.5643 12.8056 15.3358 16.6603 15.3358 20.802C15.3358 24.911 16.5451 28.7376 18.6272 31.9453C17.6178 32.2314 16.5525 32.3844 15.4515 32.3844C9.03194 32.3844 3.82788 27.1804 3.82788 20.7609C3.82788 14.3413 9.03194 9.13725 15.4515 9.13725C16.5689 9.13725 17.6496 9.29495 18.6723 9.58929Z" fill="url(#paint0_linear_2690_1123)"/>
<path d="M76.109 27.3C75.2057 27.3 74.3975 27.0979 73.6844 26.6938C72.9712 26.2897 72.4126 25.7311 72.0085 25.018C71.6044 24.2929 71.4023 23.4788 71.4023 22.5755C71.4023 21.6603 71.6044 20.8461 72.0085 20.133C72.4126 19.408 72.9712 18.8493 73.6844 18.4571C74.3975 18.053 75.2057 17.8509 76.109 17.8509C76.8578 17.8509 77.5353 17.9995 78.1415 18.2966C78.7595 18.5819 79.2587 19.0038 79.6391 19.5625L78.9794 20.0438C78.6466 19.5803 78.2306 19.2356 77.7314 19.0098C77.2441 18.7721 76.7033 18.6532 76.109 18.6532C75.384 18.6532 74.7303 18.8196 74.1479 19.1524C73.5774 19.4733 73.1258 19.9309 72.793 20.5252C72.472 21.1195 72.3116 21.8029 72.3116 22.5755C72.3116 23.348 72.472 24.0315 72.793 24.6257C73.1258 25.22 73.5774 25.6836 74.1479 26.0164C74.7303 26.3373 75.384 26.4977 76.109 26.4977C76.7033 26.4977 77.2441 26.3848 77.7314 26.159C78.2306 25.9213 78.6466 25.5706 78.9794 25.1071L79.6391 25.5885C79.2587 26.1471 78.7595 26.575 78.1415 26.8721C77.5353 27.1574 76.8578 27.3 76.109 27.3Z" fill="white"/>
<path d="M81.4379 14H82.3294V27.2287H81.4379V14Z" fill="white"/>
<path d="M89.0104 27.3C88.1309 27.3 87.3346 27.0979 86.6214 26.6938C85.9202 26.2897 85.3675 25.7311 84.9634 25.018C84.5593 24.2929 84.3572 23.4788 84.3572 22.5755C84.3572 21.6722 84.5593 20.8639 84.9634 20.1508C85.3675 19.4258 85.9202 18.8612 86.6214 18.4571C87.3346 18.053 88.1309 17.8509 89.0104 17.8509C89.89 17.8509 90.6804 18.053 91.3816 18.4571C92.0947 18.8612 92.6534 19.4258 93.0575 20.1508C93.4616 20.8639 93.6636 21.6722 93.6636 22.5755C93.6636 23.4788 93.4616 24.2929 93.0575 25.018C92.6534 25.7311 92.0947 26.2897 91.3816 26.6938C90.6804 27.0979 89.89 27.3 89.0104 27.3ZM89.0104 26.4977C89.7236 26.4977 90.3594 26.3313 90.9181 25.9985C91.4886 25.6657 91.9343 25.2022 92.2552 24.6079C92.588 24.0136 92.7544 23.3361 92.7544 22.5755C92.7544 21.8148 92.588 21.1373 92.2552 20.543C91.9343 19.9487 91.4886 19.4852 90.9181 19.1524C90.3594 18.8196 89.7236 18.6532 89.0104 18.6532C88.2973 18.6532 87.6555 18.8196 87.085 19.1524C86.5263 19.4852 86.0806 19.9487 85.7478 20.543C85.4269 21.1373 85.2665 21.8148 85.2665 22.5755C85.2665 23.3361 85.4269 24.0136 85.7478 24.6079C86.0806 25.2022 86.5263 25.6657 87.085 25.9985C87.6555 26.3313 88.2973 26.4977 89.0104 26.4977Z" fill="white"/>
<path d="M103.864 17.9223V27.2287H103.008V25.2319C102.699 25.8856 102.241 26.3967 101.635 26.7651C101.029 27.1217 100.316 27.3 99.4956 27.3C98.2833 27.3 97.3325 26.9613 96.6431 26.2838C95.9537 25.6063 95.609 24.6317 95.609 23.3599V17.9223H96.5005V23.2886C96.5005 24.3345 96.7679 25.1309 97.3027 25.6776C97.8376 26.2244 98.5923 26.4977 99.5669 26.4977C100.613 26.4977 101.439 26.1709 102.045 25.5172C102.663 24.8634 102.972 23.9839 102.972 22.8786V17.9223H103.864Z" fill="white"/>
<path d="M115.202 14V27.2287H114.328V25.0358C113.959 25.7608 113.442 26.3194 112.777 26.7117C112.111 27.1039 111.357 27.3 110.513 27.3C109.645 27.3 108.861 27.0979 108.159 26.6938C107.458 26.2897 106.905 25.7311 106.501 25.018C106.109 24.3048 105.913 23.4907 105.913 22.5755C105.913 21.6603 106.109 20.8461 106.501 20.133C106.905 19.408 107.458 18.8493 108.159 18.4571C108.861 18.053 109.645 17.8509 110.513 17.8509C111.345 17.8509 112.087 18.0471 112.741 18.4393C113.407 18.8315 113.93 19.3782 114.31 20.0795V14H115.202ZM110.566 26.4977C111.279 26.4977 111.915 26.3313 112.474 25.9985C113.044 25.6657 113.49 25.2022 113.811 24.6079C114.144 24.0136 114.31 23.3361 114.31 22.5755C114.31 21.8148 114.144 21.1373 113.811 20.543C113.49 19.9487 113.044 19.4852 112.474 19.1524C111.915 18.8196 111.279 18.6532 110.566 18.6532C109.853 18.6532 109.211 18.8196 108.641 19.1524C108.082 19.4852 107.636 19.9487 107.304 20.543C106.983 21.1373 106.822 21.8148 106.822 22.5755C106.822 23.3361 106.983 24.0136 107.304 24.6079C107.636 25.2022 108.082 25.6657 108.641 25.9985C109.211 26.3313 109.853 26.4977 110.566 26.4977Z" fill="white"/>
<path d="M122.793 17.8509C123.958 17.8509 124.879 18.1897 125.556 18.8672C126.234 19.5446 126.573 20.5193 126.573 21.791V27.2287H125.681V21.8623C125.681 20.8164 125.414 20.0201 124.879 19.4733C124.356 18.9266 123.619 18.6532 122.668 18.6532C121.575 18.6532 120.713 18.9801 120.083 19.6338C119.453 20.2875 119.138 21.167 119.138 22.2724V27.2287H118.247V17.9223H119.102V19.9369C119.423 19.2832 119.899 18.7721 120.529 18.4036C121.171 18.0352 121.925 17.8509 122.793 17.8509Z" fill="white"/>
<path d="M137.677 17.9223V27.2287H136.821V25.2319C136.512 25.8856 136.055 26.3967 135.448 26.7651C134.842 27.1217 134.129 27.3 133.309 27.3C132.097 27.3 131.146 26.9613 130.457 26.2838C129.767 25.6063 129.422 24.6317 129.422 23.3599V17.9223H130.314V23.2886C130.314 24.3345 130.581 25.1309 131.116 25.6776C131.651 26.2244 132.406 26.4977 133.38 26.4977C134.426 26.4977 135.252 26.1709 135.859 25.5172C136.477 24.8634 136.786 23.9839 136.786 22.8786V17.9223H137.677Z" fill="white"/>
<path d="M149.015 14V27.2287H148.141V25.0358C147.773 25.7608 147.256 26.3194 146.59 26.7117C145.925 27.1039 145.17 27.3 144.326 27.3C143.458 27.3 142.674 27.0979 141.973 26.6938C141.271 26.2897 140.719 25.7311 140.315 25.018C139.922 24.3048 139.726 23.4907 139.726 22.5755C139.726 21.6603 139.922 20.8461 140.315 20.133C140.719 19.408 141.271 18.8493 141.973 18.4571C142.674 18.053 143.458 17.8509 144.326 17.8509C145.158 17.8509 145.901 18.0471 146.555 18.4393C147.22 18.8315 147.743 19.3782 148.124 20.0795V14H149.015ZM144.38 26.4977C145.093 26.4977 145.729 26.3313 146.287 25.9985C146.858 25.6657 147.303 25.2022 147.624 24.6079C147.957 24.0136 148.124 23.3361 148.124 22.5755C148.124 21.8148 147.957 21.1373 147.624 20.543C147.303 19.9487 146.858 19.4852 146.287 19.1524C145.729 18.8196 145.093 18.6532 144.38 18.6532C143.666 18.6532 143.025 18.8196 142.454 19.1524C141.895 19.4852 141.45 19.9487 141.117 20.543C140.796 21.1373 140.636 21.8148 140.636 22.5755C140.636 23.3361 140.796 24.0136 141.117 24.6079C141.45 25.2022 141.895 25.6657 142.454 25.9985C143.025 26.3313 143.666 26.4977 144.38 26.4977Z" fill="white"/>
<path d="M160.208 17.9223V27.2287H159.352V25.2319C159.043 25.8856 158.585 26.3967 157.979 26.7651C157.373 27.1217 156.66 27.3 155.84 27.3C154.627 27.3 153.677 26.9613 152.987 26.2838C152.298 25.6063 151.953 24.6317 151.953 23.3599V17.9223H152.845V23.2886C152.845 24.3345 153.112 25.1309 153.647 25.6776C154.182 26.2244 154.936 26.4977 155.911 26.4977C156.957 26.4977 157.783 26.1709 158.389 25.5172C159.007 24.8634 159.316 23.9839 159.316 22.8786V17.9223H160.208Z" fill="white"/>
<path d="M174.862 17.8509C176.015 17.8509 176.918 18.1897 177.572 18.8672C178.237 19.5446 178.57 20.5193 178.57 21.791V27.2287H177.679V21.8623C177.679 20.8164 177.423 20.0201 176.912 19.4733C176.401 18.9266 175.688 18.6532 174.773 18.6532C173.727 18.6532 172.895 18.9801 172.277 19.6338C171.67 20.2875 171.367 21.167 171.367 22.2724V27.2287H170.476V21.8623C170.476 20.8164 170.22 20.0201 169.709 19.4733C169.198 18.9266 168.485 18.6532 167.57 18.6532C166.524 18.6532 165.692 18.9801 165.074 19.6338C164.468 20.2875 164.165 21.167 164.165 22.2724V27.2287H163.273V17.9223H164.129V19.919C164.438 19.2653 164.896 18.7602 165.502 18.4036C166.12 18.0352 166.851 17.8509 167.695 17.8509C168.539 17.8509 169.252 18.0411 169.834 18.4214C170.428 18.8018 170.85 19.3604 171.1 20.0973C171.409 19.408 171.89 18.8612 172.544 18.4571C173.21 18.053 173.982 17.8509 174.862 17.8509Z" fill="white"/>
<defs>
<linearGradient id="paint0_linear_2690_1123" x1="7.38067" y1="41.2962" x2="57.5839" y2="1.35269" gradientUnits="userSpaceOnUse">
<stop stop-color="#0A06E9"/>
<stop offset="1" stop-color="#0094FF"/>
<stop offset="1" stop-color="#0094FF"/>
</linearGradient>
</defs>
</svg>
