<svg width="20" height="21" viewBox="0 0 20 21" fill="none" xmlns="http://www.w3.org/2000/svg">
<path d="M9.9999 0.900024C12.546 0.900024 14.9878 1.91145 16.7881 3.7118C18.5885 5.51215 19.5999 7.95395 19.5999 10.5C19.5999 13.0461 18.5885 15.4879 16.7881 17.2882C14.9878 19.0886 12.546 20.1 9.9999 20.1C7.45382 20.1 5.01203 19.0886 3.21168 17.2882C1.41133 15.4879 0.399902 13.0461 0.399902 10.5C0.399902 7.95395 1.41133 5.51215 3.21168 3.7118C5.01203 1.91145 7.45382 0.900024 9.9999 0.900024ZM9.9999 2.10002C8.8968 2.10002 7.8045 2.3173 6.78536 2.73944C5.76623 3.16158 4.84022 3.78032 4.06021 4.56033C3.28019 5.34034 2.66145 6.26635 2.23931 7.28548C1.81717 8.30462 1.5999 9.39692 1.5999 10.5C1.5999 11.6031 1.81717 12.6954 2.23931 13.7146C2.66145 14.7337 3.28019 15.6597 4.06021 16.4397C4.84022 17.2197 5.76623 17.8385 6.78536 18.2606C7.8045 18.6828 8.8968 18.9 9.9999 18.9C12.2277 18.9 14.3643 18.015 15.9396 16.4397C17.5149 14.8644 18.3999 12.7278 18.3999 10.5C18.3999 8.27221 17.5149 6.13563 15.9396 4.56033C14.3643 2.98502 12.2277 2.10002 9.9999 2.10002ZM9.9999 14.7C10.2386 14.7 10.4675 14.7948 10.6363 14.9636C10.8051 15.1324 10.8999 15.3613 10.8999 15.6C10.8999 15.8387 10.8051 16.0676 10.6363 16.2364C10.4675 16.4052 10.2386 16.5 9.9999 16.5C9.76121 16.5 9.53229 16.4052 9.36351 16.2364C9.19472 16.0676 9.0999 15.8387 9.0999 15.6C9.0999 15.3613 9.19472 15.1324 9.36351 14.9636C9.53229 14.7948 9.76121 14.7 9.9999 14.7ZM9.9999 5.10002C10.6095 5.1001 11.2047 5.28592 11.7061 5.63271C12.2075 5.97951 12.5913 6.47083 12.8065 7.04124C13.0216 7.61166 13.0579 8.23408 12.9104 8.82562C12.763 9.41716 12.4388 9.94974 11.9811 10.3524L11.7963 10.5024L11.5335 10.698L11.4291 10.7844C11.3635 10.8406 11.301 10.9002 11.2419 10.9632C10.8351 11.3952 10.5999 11.9904 10.5999 12.9C10.5999 13.0592 10.5367 13.2118 10.4242 13.3243C10.3116 13.4368 10.159 13.5 9.9999 13.5C9.84077 13.5 9.68816 13.4368 9.57564 13.3243C9.46312 13.2118 9.3999 13.0592 9.3999 12.9C9.3999 11.6856 9.7515 10.7976 10.3659 10.1424C10.4981 10.0024 10.6409 9.87281 10.7931 9.75482L11.0895 9.53283L11.2311 9.41282C11.4488 9.20867 11.6124 8.95358 11.707 8.6705C11.8017 8.38743 11.8244 8.08527 11.7733 7.79122C11.7221 7.49716 11.5986 7.22044 11.4139 6.98597C11.2292 6.7515 10.9892 6.56663 10.7153 6.44801C10.4414 6.32939 10.1423 6.28074 9.84493 6.30644C9.54756 6.33214 9.26125 6.43138 9.01178 6.59523C8.7623 6.75908 8.55748 6.98239 8.41576 7.24507C8.27404 7.50775 8.19986 7.80155 8.1999 8.10002C8.20006 8.25915 8.137 8.41183 8.02459 8.52446C7.91218 8.6371 7.75963 8.70047 7.6005 8.70062C7.44137 8.70078 7.2887 8.63772 7.17606 8.52531C7.06343 8.4129 7.00006 8.26036 6.9999 8.10123C6.99974 7.70716 7.07723 7.31692 7.22792 6.95281C7.37861 6.58869 7.59957 6.25783 7.87816 5.97913C8.15675 5.70043 8.48752 5.47934 8.85157 5.3285C9.21563 5.17766 9.60584 5.10002 9.9999 5.10002Z" fill="#575DFF"/>
</svg>
